<?xml version="1.0" encoding="UTF-8" standalone="no"?>
<!DOCTYPE svg PUBLIC "-//W3C//DTD SVG 1.1//EN"
 "http://www.w3.org/Graphics/SVG/1.1/DTD/svg11.dtd">
<!-- Generated by graphviz version 2.44.1 (20200629.0846)
 -->
<!-- Title: imdf_net_1610968803.076205 Pages: 1 -->
<svg width="3402pt" height="700pt"
 viewBox="0.00 0.00 3402.00 700.00" xmlns="http://www.w3.org/2000/svg" xmlns:xlink="http://www.w3.org/1999/xlink">
<g id="graph0" class="graph" transform="scale(1 1) rotate(0) translate(4 696)">
<title>imdf_net_1610968803.076205</title>
<!-- 5266953048 -->
<g id="node1" class="node">
<title>5266953048</title>
<polygon fill="none" stroke="black" points="2156,-392 2015,-392 2015,-356 2156,-356 2156,-392"/>
<text text-anchor="middle" x="2085.5" y="-370.3" font-family="Times,serif" font-size="14.00">claim trading proceeds</text>
</g>
<!-- 5266952880 -->
<g id="node64" class="node">
<title>5266952880</title>
<ellipse fill="none" stroke="black" cx="2237" cy="-397" rx="27" ry="27"/>
</g>
<!-- 5266953048&#45;&gt;5266952880 -->
<g id="edge10" class="edge">
<title>5266953048&#45;&gt;5266952880</title>
<path fill="none" stroke="black" d="M2156.44,-384.76C2171.55,-387.08 2186.92,-389.45 2200.07,-391.47"/>
<polygon fill="black" stroke="black" points="2199.68,-394.95 2210.1,-393.02 2200.75,-388.04 2199.68,-394.95"/>
</g>
<!-- 5262824616 -->
<g id="node2" class="node">
<title>5262824616</title>
<polygon fill="none" stroke="black" points="2944,-173 2834,-173 2834,-137 2944,-137 2944,-173"/>
<text text-anchor="middle" x="2889" y="-151.3" font-family="Times,serif" font-size="14.00">complete dispute</text>
</g>
<!-- 5262645624 -->
<g id="node48" class="node">
<title>5262645624</title>
<ellipse fill="none" stroke="black" cx="1350" cy="-132" rx="27" ry="27"/>
</g>
<!-- 5262824616&#45;&gt;5262645624 -->
<g id="edge11" class="edge">
<title>5262824616&#45;&gt;5262645624</title>
<path fill="none" stroke="black" d="M2833.57,-155C2781.74,-155 2701.56,-155 2632,-155 1529,-155 1529,-155 1529,-155 1479.23,-155 1422.27,-146.05 1386.47,-139.31"/>
<polygon fill="black" stroke="black" points="1386.99,-135.85 1376.51,-137.39 1385.67,-142.72 1386.99,-135.85"/>
</g>
<!-- 5262825848 -->
<g id="node3" class="node">
<title>5262825848</title>
<polygon fill="none" stroke="black" points="2428,-118 2300,-118 2300,-82 2428,-82 2428,-118"/>
<text text-anchor="middle" x="2364" y="-96.3" font-family="Times,serif" font-size="14.00">contribute to dispute</text>
</g>
<!-- 5262825512 -->
<g id="node53" class="node">
<title>5262825512</title>
<ellipse fill="none" stroke="black" cx="2491" cy="-100" rx="27" ry="27"/>
</g>
<!-- 5262825848&#45;&gt;5262825512 -->
<g id="edge9" class="edge">
<title>5262825848&#45;&gt;5262825512</title>
<path fill="none" stroke="black" d="M2428.23,-100C2436.99,-100 2445.73,-100 2453.76,-100"/>
<polygon fill="black" stroke="black" points="2453.85,-103.5 2463.85,-100 2453.85,-96.5 2453.85,-103.5"/>
</g>
<!-- 5262825960 -->
<g id="node4" class="node">
<title>5262825960</title>
<polygon fill="none" stroke="black" points="1868,-118 1776,-118 1776,-82 1868,-82 1868,-118"/>
<text text-anchor="middle" x="1822" y="-96.3" font-family="Times,serif" font-size="14.00">create dispute</text>
</g>
<!-- 5262646072 -->
<g id="node50" class="node">
<title>5262646072</title>
<ellipse fill="none" stroke="black" cx="1934" cy="-100" rx="27" ry="27"/>
</g>
<!-- 5262825960&#45;&gt;5262646072 -->
<g id="edge5" class="edge">
<title>5262825960&#45;&gt;5262646072</title>
<path fill="none" stroke="black" d="M1868.06,-100C1877.53,-100 1887.4,-100 1896.51,-100"/>
<polygon fill="black" stroke="black" points="1896.78,-103.5 1906.78,-100 1896.78,-96.5 1896.78,-103.5"/>
</g>
<!-- 5262657464 -->
<g id="node5" class="node">
<title>5262657464</title>
<polygon fill="none" stroke="black" points="181,-308 90,-308 90,-272 181,-272 181,-308"/>
<text text-anchor="middle" x="135.5" y="-286.3" font-family="Times,serif" font-size="14.00">create market</text>
</g>
<!-- 5262656904 -->
<g id="node69" class="node">
<title>5262656904</title>
<ellipse fill="none" stroke="black" cx="244" cy="-290" rx="27" ry="27"/>
</g>
<!-- 5262657464&#45;&gt;5262656904 -->
<g id="edge6" class="edge">
<title>5262657464&#45;&gt;5262656904</title>
<path fill="none" stroke="black" d="M181.05,-290C189.63,-290 198.51,-290 206.78,-290"/>
<polygon fill="black" stroke="black" points="206.87,-293.5 216.87,-290 206.87,-286.5 206.87,-293.5"/>
</g>
<!-- 5262925272 -->
<g id="node6" class="node">
<title>5262925272</title>
<polygon fill="none" stroke="black" points="1871,-509 1773,-509 1773,-473 1871,-473 1871,-509"/>
<text text-anchor="middle" x="1822" y="-487.3" font-family="Times,serif" font-size="14.00">finalize market</text>
</g>
<!-- 5262925104 -->
<g id="node60" class="node">
<title>5262925104</title>
<ellipse fill="none" stroke="black" cx="1934" cy="-577" rx="27" ry="27"/>
</g>
<!-- 5262925272&#45;&gt;5262925104 -->
<g id="edge2" class="edge">
<title>5262925272&#45;&gt;5262925104</title>
<path fill="none" stroke="black" d="M1846.06,-509.03C1863,-522.27 1886.11,-540.34 1904.26,-554.53"/>
<polygon fill="black" stroke="black" points="1902.17,-557.34 1912.2,-560.74 1906.48,-551.82 1902.17,-557.34"/>
</g>
<!-- 5262735400 -->
<g id="node7" class="node">
<title>5262735400</title>
<polygon fill="none" stroke="black" points="856,-336 713,-336 713,-300 856,-300 856,-336"/>
<text text-anchor="middle" x="784.5" y="-314.3" font-family="Times,serif" font-size="14.00">purchase complete sets</text>
</g>
<!-- 5262734672 -->
<g id="node73" class="node">
<title>5262734672</title>
<ellipse fill="none" stroke="black" cx="919" cy="-314" rx="27" ry="27"/>
</g>
<!-- 5262735400&#45;&gt;5262734672 -->
<g id="edge7" class="edge">
<title>5262735400&#45;&gt;5262734672</title>
<path fill="none" stroke="black" d="M856.02,-315.87C864.96,-315.6 873.79,-315.33 881.87,-315.09"/>
<polygon fill="black" stroke="black" points="882.1,-318.59 891.99,-314.79 881.89,-311.59 882.1,-318.59"/>
</g>
<!-- 5266955232 -->
<g id="node8" class="node">
<title>5266955232</title>
<polygon fill="none" stroke="black" points="2708,-601 2554,-601 2554,-565 2708,-565 2708,-601"/>
<text text-anchor="middle" x="2631" y="-579.3" font-family="Times,serif" font-size="14.00">redeem as initial reporter</text>
</g>
<!-- 5266955064 -->
<g id="node68" class="node">
<title>5266955064</title>
<ellipse fill="none" stroke="black" cx="2771" cy="-583" rx="27" ry="27"/>
</g>
<!-- 5266955232&#45;&gt;5266955064 -->
<g id="edge3" class="edge">
<title>5266955232&#45;&gt;5266955064</title>
<path fill="none" stroke="black" d="M2708.27,-583C2717.19,-583 2725.96,-583 2733.95,-583"/>
<polygon fill="black" stroke="black" points="2733.96,-586.5 2743.96,-583 2733.96,-579.5 2733.96,-586.5"/>
</g>
<!-- 5262923760 -->
<g id="node9" class="node">
<title>5262923760</title>
<polygon fill="none" stroke="black" points="2174,-264 1997,-264 1997,-228 2174,-228 2174,-264"/>
<text text-anchor="middle" x="2085.5" y="-242.3" font-family="Times,serif" font-size="14.00">redeem dispute crowdsourcer</text>
</g>
<!-- 5262923592 -->
<g id="node57" class="node">
<title>5262923592</title>
<ellipse fill="none" stroke="black" cx="2237" cy="-249" rx="27" ry="27"/>
</g>
<!-- 5262923760&#45;&gt;5262923592 -->
<g id="edge8" class="edge">
<title>5262923760&#45;&gt;5262923592</title>
<path fill="none" stroke="black" d="M2174.33,-247.76C2183.24,-247.94 2191.9,-248.12 2199.77,-248.27"/>
<polygon fill="black" stroke="black" points="2199.91,-251.78 2209.98,-248.48 2200.05,-244.78 2199.91,-251.78"/>
</g>
<!-- 5262736800 -->
<g id="node10" class="node">
<title>5262736800</title>
<polygon fill="none" stroke="black" points="1287,-300 1162,-300 1162,-264 1287,-264 1287,-300"/>
<text text-anchor="middle" x="1224.5" y="-278.3" font-family="Times,serif" font-size="14.00">submit initial report</text>
</g>
<!-- 5262734056 -->
<g id="node45" class="node">
<title>5262734056</title>
<ellipse fill="none" stroke="black" cx="1350" cy="-282" rx="27" ry="27"/>
</g>
<!-- 5262736800&#45;&gt;5262734056 -->
<g id="edge1" class="edge">
<title>5262736800&#45;&gt;5262734056</title>
<path fill="none" stroke="black" d="M1287.25,-282C1295.97,-282 1304.69,-282 1312.72,-282"/>
<polygon fill="black" stroke="black" points="1312.81,-285.5 1322.81,-282 1312.81,-278.5 1312.81,-285.5"/>
</g>
<!-- 5262646912 -->
<g id="node11" class="node">
<title>5262646912</title>
<polygon fill="black" stroke="black" points="1647,-118 1593,-118 1593,-82 1647,-82 1647,-118"/>
</g>
<!-- 5262646688 -->
<g id="node49" class="node">
<title>5262646688</title>
<ellipse fill="none" stroke="black" cx="1710" cy="-100" rx="27" ry="27"/>
</g>
<!-- 5262646912&#45;&gt;5262646688 -->
<g id="edge12" class="edge">
<title>5262646912&#45;&gt;5262646688</title>
<path fill="none" stroke="black" d="M1647.4,-100C1655.39,-100 1664.31,-100 1672.82,-100"/>
<polygon fill="black" stroke="black" points="1672.92,-103.5 1682.92,-100 1672.92,-96.5 1672.92,-103.5"/>
</g>
<!-- 5262923144 -->
<g id="node12" class="node">
<title>5262923144</title>
<polygon fill="black" stroke="black" points="1849,-269 1795,-269 1795,-233 1849,-233 1849,-269"/>
</g>
<!-- 5262923032 -->
<g id="node56" class="node">
<title>5262923032</title>
<ellipse fill="none" stroke="black" cx="1934" cy="-242" rx="27" ry="27"/>
</g>
<!-- 5262923144&#45;&gt;5262923032 -->
<g id="edge13" class="edge">
<title>5262923144&#45;&gt;5262923032</title>
<path fill="none" stroke="black" d="M1849.07,-248.87C1863.21,-247.71 1880.92,-246.26 1896.43,-244.99"/>
<polygon fill="black" stroke="black" points="1897.06,-248.45 1906.74,-244.15 1896.49,-241.48 1897.06,-248.45"/>
</g>
<!-- 5266952544 -->
<g id="node13" class="node">
<title>5266952544</title>
<polygon fill="black" stroke="black" points="2391,-514 2337,-514 2337,-478 2391,-478 2391,-514"/>
</g>
<!-- 5266952432 -->
<g id="node63" class="node">
<title>5266952432</title>
<ellipse fill="none" stroke="black" cx="2491" cy="-388" rx="27" ry="27"/>
</g>
<!-- 5266952544&#45;&gt;5266952432 -->
<g id="edge14" class="edge">
<title>5266952544&#45;&gt;5266952432</title>
<path fill="none" stroke="black" d="M2391.14,-488.21C2403.15,-483.81 2417.11,-477.48 2428,-469 2445.22,-455.6 2460.22,-436.34 2471.16,-419.97"/>
<polygon fill="black" stroke="black" points="2474.32,-421.52 2476.8,-411.22 2468.44,-417.72 2474.32,-421.52"/>
</g>
<!-- 5266954728 -->
<g id="node14" class="node">
<title>5266954728</title>
<polygon fill="black" stroke="black" points="2391,-622 2337,-622 2337,-586 2391,-586 2391,-622"/>
</g>
<!-- 5266954448 -->
<g id="node67" class="node">
<title>5266954448</title>
<ellipse fill="none" stroke="black" cx="2491" cy="-583" rx="27" ry="27"/>
</g>
<!-- 5266954728&#45;&gt;5266954448 -->
<g id="edge15" class="edge">
<title>5266954728&#45;&gt;5266954448</title>
<path fill="none" stroke="black" d="M2391.2,-599.6C2409.49,-596.53 2434.13,-592.39 2454.22,-589.01"/>
<polygon fill="black" stroke="black" points="2454.98,-592.43 2464.26,-587.32 2453.82,-585.53 2454.98,-592.43"/>
</g>
<!-- 5262733776 -->
<g id="node15" class="node">
<title>5262733776</title>
<polygon fill="black" stroke="black" points="587,-335 533,-335 533,-299 587,-299 587,-335"/>
</g>
<!-- 5262733496 -->
<g id="node72" class="node">
<title>5262733496</title>
<ellipse fill="none" stroke="black" cx="650" cy="-322" rx="27" ry="27"/>
</g>
<!-- 5262733776&#45;&gt;5262733496 -->
<g id="edge16" class="edge">
<title>5262733776&#45;&gt;5262733496</title>
<path fill="none" stroke="black" d="M587.4,-318.5C595.39,-318.95 604.31,-319.46 612.82,-319.94"/>
<polygon fill="black" stroke="black" points="612.74,-323.45 622.92,-320.52 613.13,-316.46 612.74,-323.45"/>
</g>
<!-- 5262643272 -->
<g id="node16" class="node">
<title>5262643272</title>
<polygon fill="black" stroke="black" points="1467,-273 1413,-273 1413,-237 1467,-237 1467,-273"/>
</g>
<!-- 5262645344 -->
<g id="node47" class="node">
<title>5262645344</title>
<ellipse fill="none" stroke="black" cx="1530" cy="-100" rx="27" ry="27"/>
</g>
<!-- 5262643272&#45;&gt;5262645344 -->
<g id="edge17" class="edge">
<title>5262643272&#45;&gt;5262645344</title>
<path fill="none" stroke="black" d="M1460,-236.78C1462.5,-233.96 1464.92,-230.99 1467,-228 1487.5,-198.59 1504.69,-161.38 1515.73,-134.66"/>
<polygon fill="black" stroke="black" points="1519,-135.91 1519.51,-125.33 1512.51,-133.28 1519,-135.91"/>
</g>
<!-- 5262823888 -->
<g id="node17" class="node">
<title>5262823888</title>
<polygon fill="black" stroke="black" points="2112.5,-64 2058.5,-64 2058.5,-28 2112.5,-28 2112.5,-64"/>
</g>
<!-- 5262823888&#45;&gt;5262646688 -->
<g id="edge62" class="edge">
<title>5262823888&#45;&gt;5262646688</title>
<path fill="none" stroke="black" d="M2058.18,-45.44C2003.93,-44.9 1876.12,-46.82 1773,-73 1763.12,-75.51 1752.81,-79.42 1743.49,-83.5"/>
<polygon fill="black" stroke="black" points="1741.84,-80.4 1734.21,-87.75 1744.76,-86.77 1741.84,-80.4"/>
</g>
<!-- 5262824280 -->
<g id="node18" class="node">
<title>5262824280</title>
<polygon fill="black" stroke="black" points="2112.5,-118 2058.5,-118 2058.5,-82 2112.5,-82 2112.5,-118"/>
</g>
<!-- 5262824784 -->
<g id="node52" class="node">
<title>5262824784</title>
<ellipse fill="none" stroke="black" cx="2237" cy="-100" rx="27" ry="27"/>
</g>
<!-- 5262824280&#45;&gt;5262824784 -->
<g id="edge63" class="edge">
<title>5262824280&#45;&gt;5262824784</title>
<path fill="none" stroke="black" d="M2112.54,-100C2136.62,-100 2172.64,-100 2199.56,-100"/>
<polygon fill="black" stroke="black" points="2199.76,-103.5 2209.76,-100 2199.76,-96.5 2199.76,-103.5"/>
</g>
<!-- 5262826240 -->
<g id="node19" class="node">
<title>5262826240</title>
<polygon fill="black" stroke="black" points="2658,-64 2604,-64 2604,-28 2658,-28 2658,-64"/>
</g>
<!-- 5262826240&#45;&gt;5262824784 -->
<g id="edge64" class="edge">
<title>5262826240&#45;&gt;5262824784</title>
<path fill="none" stroke="black" d="M2603.86,-45.26C2547.43,-44.28 2410.39,-45.26 2300,-73 2290.11,-75.48 2279.8,-79.39 2270.49,-83.47"/>
<polygon fill="black" stroke="black" points="2268.83,-80.37 2261.2,-87.72 2271.75,-86.74 2268.83,-80.37"/>
</g>
<!-- 5262826520 -->
<g id="node20" class="node">
<title>5262826520</title>
<polygon fill="black" stroke="black" points="2658,-118 2604,-118 2604,-82 2658,-82 2658,-118"/>
</g>
<!-- 5262645736 -->
<g id="node51" class="node">
<title>5262645736</title>
<ellipse fill="none" stroke="black" cx="2771" cy="-100" rx="27" ry="27"/>
</g>
<!-- 5262826520&#45;&gt;5262645736 -->
<g id="edge65" class="edge">
<title>5262826520&#45;&gt;5262645736</title>
<path fill="none" stroke="black" d="M2658.28,-100C2679.67,-100 2710.09,-100 2733.79,-100"/>
<polygon fill="black" stroke="black" points="2733.82,-103.5 2743.82,-100 2733.82,-96.5 2733.82,-103.5"/>
</g>
<!-- 5262826912 -->
<g id="node21" class="node">
<title>5262826912</title>
<polygon fill="black" stroke="black" points="2916,-68 2862,-68 2862,-32 2916,-32 2916,-68"/>
</g>
<!-- 5262826912&#45;&gt;5262645624 -->
<g id="edge66" class="edge">
<title>5262826912&#45;&gt;5262645624</title>
<path fill="none" stroke="black" d="M2861.8,-41.4C2815.81,-27.11 2717.36,0 2632,0 1529,0 1529,0 1529,0 1461.22,0 1402.43,-62.52 1372.36,-101.5"/>
<polygon fill="black" stroke="black" points="1369.25,-99.81 1366.03,-109.91 1374.84,-104.02 1369.25,-99.81"/>
</g>
<!-- 5262561008 -->
<g id="node22" class="node">
<title>5262561008</title>
<polygon fill="black" stroke="black" points="384,-335 330,-335 330,-299 384,-299 384,-335"/>
</g>
<!-- 5262658248 -->
<g id="node70" class="node">
<title>5262658248</title>
<ellipse fill="none" stroke="black" cx="470" cy="-290" rx="27" ry="27"/>
</g>
<!-- 5262561008&#45;&gt;5262658248 -->
<g id="edge67" class="edge">
<title>5262561008&#45;&gt;5262658248</title>
<path fill="none" stroke="black" d="M384.02,-310.67C398.74,-307.09 417.36,-302.56 433.41,-298.66"/>
<polygon fill="black" stroke="black" points="434.63,-301.96 443.52,-296.2 432.98,-295.16 434.63,-301.96"/>
</g>
<!-- 5262827416 -->
<g id="node23" class="node">
<title>5262827416</title>
<polygon fill="black" stroke="black" points="1467,-123 1413,-123 1413,-87 1467,-87 1467,-123"/>
</g>
<!-- 5262827416&#45;&gt;5262645344 -->
<g id="edge68" class="edge">
<title>5262827416&#45;&gt;5262645344</title>
<path fill="none" stroke="black" d="M1467.4,-103.5C1475.39,-103.05 1484.31,-102.54 1492.82,-102.06"/>
<polygon fill="black" stroke="black" points="1493.13,-105.54 1502.92,-101.48 1492.74,-98.55 1493.13,-105.54"/>
</g>
<!-- 5262924936 -->
<g id="node24" class="node">
<title>5262924936</title>
<polygon fill="black" stroke="black" points="1467,-219 1413,-219 1413,-183 1467,-183 1467,-219"/>
</g>
<!-- 5262736968 -->
<g id="node46" class="node">
<title>5262736968</title>
<ellipse fill="none" stroke="black" cx="1530" cy="-308" rx="27" ry="27"/>
</g>
<!-- 5262924936&#45;&gt;5262736968 -->
<g id="edge69" class="edge">
<title>5262924936&#45;&gt;5262736968</title>
<path fill="none" stroke="black" d="M1458.89,-219.05C1461.66,-221.99 1464.45,-225.05 1467,-228 1480.96,-244.15 1495.64,-262.99 1507.2,-278.33"/>
<polygon fill="black" stroke="black" points="1504.49,-280.54 1513.29,-286.45 1510.09,-276.35 1504.49,-280.54"/>
</g>
<!-- 5262922808 -->
<g id="node25" class="node">
<title>5262922808</title>
<polygon fill="black" stroke="black" points="1961,-323 1907,-323 1907,-287 1961,-287 1961,-323"/>
</g>
<!-- 5262922528 -->
<g id="node55" class="node">
<title>5262922528</title>
<ellipse fill="none" stroke="black" cx="2491" cy="-304" rx="27" ry="27"/>
</g>
<!-- 5262922808&#45;&gt;5262922528 -->
<g id="edge70" class="edge">
<title>5262922808&#45;&gt;5262922528</title>
<path fill="none" stroke="black" d="M1961.02,-304.95C2051.05,-304.79 2349.43,-304.25 2453.67,-304.07"/>
<polygon fill="black" stroke="black" points="2453.72,-307.57 2463.71,-304.05 2453.7,-300.57 2453.72,-307.57"/>
</g>
<!-- 5262924096 -->
<g id="node26" class="node">
<title>5262924096</title>
<polygon fill="black" stroke="black" points="2391,-221 2337,-221 2337,-185 2391,-185 2391,-221"/>
</g>
<!-- 5262924096&#45;&gt;5262923032 -->
<g id="edge71" class="edge">
<title>5262924096&#45;&gt;5262923032</title>
<path fill="none" stroke="black" d="M2336.93,-201.39C2276.47,-198.25 2122.31,-193.67 1997,-219 1987.5,-220.92 1977.52,-224.08 1968.41,-227.45"/>
<polygon fill="black" stroke="black" points="1966.98,-224.25 1958.93,-231.13 1969.52,-230.77 1966.98,-224.25"/>
</g>
<!-- 5262924376 -->
<g id="node27" class="node">
<title>5262924376</title>
<polygon fill="black" stroke="black" points="2391,-276 2337,-276 2337,-240 2391,-240 2391,-276"/>
</g>
<!-- 5262924376&#45;&gt;5262922528 -->
<g id="edge72" class="edge">
<title>5262924376&#45;&gt;5262922528</title>
<path fill="none" stroke="black" d="M2391.2,-267.64C2410.03,-274.57 2435.58,-283.97 2455.98,-291.48"/>
<polygon fill="black" stroke="black" points="2454.94,-294.83 2465.53,-294.99 2457.35,-288.26 2454.94,-294.83"/>
</g>
<!-- 5262925496 -->
<g id="node28" class="node">
<title>5262925496</title>
<polygon fill="black" stroke="black" points="3034,-689 2980,-689 2980,-653 3034,-653 3034,-689"/>
</g>
<!-- 5262924768 -->
<g id="node59" class="node">
<title>5262924768</title>
<ellipse fill="none" stroke="black" cx="3187" cy="-541" rx="27" ry="27"/>
</g>
<!-- 5262925496&#45;&gt;5262924768 -->
<g id="edge73" class="edge">
<title>5262925496&#45;&gt;5262924768</title>
<path fill="none" stroke="black" d="M3032.75,-652.92C3065.16,-629.26 3121.9,-587.81 3156.5,-562.54"/>
<polygon fill="black" stroke="black" points="3158.78,-565.21 3164.79,-556.49 3154.65,-559.56 3158.78,-565.21"/>
</g>
<!-- 5262737024 -->
<g id="node29" class="node">
<title>5262737024</title>
<polygon fill="black" stroke="black" points="677,-277 623,-277 623,-241 677,-241 677,-277"/>
</g>
<!-- 5262659032 -->
<g id="node71" class="node">
<title>5262659032</title>
<ellipse fill="none" stroke="black" cx="1099" cy="-282" rx="27" ry="27"/>
</g>
<!-- 5262737024&#45;&gt;5262659032 -->
<g id="edge74" class="edge">
<title>5262737024&#45;&gt;5262659032</title>
<path fill="none" stroke="black" d="M677.29,-260.35C753.46,-264.27 974.4,-275.64 1061.8,-280.14"/>
<polygon fill="black" stroke="black" points="1061.85,-283.64 1072.02,-280.66 1062.21,-276.65 1061.85,-283.64"/>
</g>
<!-- 5266952264 -->
<g id="node30" class="node">
<title>5266952264</title>
<polygon fill="black" stroke="black" points="2391,-568 2337,-568 2337,-532 2391,-532 2391,-568"/>
</g>
<!-- 5266954616 -->
<g id="node62" class="node">
<title>5266954616</title>
<ellipse fill="none" stroke="black" cx="2491" cy="-487" rx="27" ry="27"/>
</g>
<!-- 5266952264&#45;&gt;5266954616 -->
<g id="edge75" class="edge">
<title>5266952264&#45;&gt;5266954616</title>
<path fill="none" stroke="black" d="M2391.07,-539.66C2402.54,-534.9 2416.09,-528.98 2428,-523 2438.3,-517.82 2449.27,-511.68 2459.07,-505.95"/>
<polygon fill="black" stroke="black" points="2460.87,-508.95 2467.69,-500.84 2457.3,-502.93 2460.87,-508.95"/>
</g>
<!-- 5266953328 -->
<g id="node31" class="node">
<title>5266953328</title>
<polygon fill="black" stroke="black" points="2391,-406 2337,-406 2337,-370 2391,-370 2391,-406"/>
</g>
<!-- 5266953328&#45;&gt;5266952432 -->
<g id="edge76" class="edge">
<title>5266953328&#45;&gt;5266952432</title>
<path fill="none" stroke="black" d="M2391.2,-388C2409.37,-388 2433.8,-388 2453.82,-388"/>
<polygon fill="black" stroke="black" points="2453.83,-391.5 2463.83,-388 2453.83,-384.5 2453.83,-391.5"/>
</g>
<!-- 5266953552 -->
<g id="node32" class="node">
<title>5266953552</title>
<polygon fill="black" stroke="black" points="2391,-460 2337,-460 2337,-424 2391,-424 2391,-460"/>
</g>
<!-- 5266953552&#45;&gt;5266954616 -->
<g id="edge77" class="edge">
<title>5266953552&#45;&gt;5266954616</title>
<path fill="none" stroke="black" d="M2391.2,-451.43C2409.91,-458.17 2435.25,-467.29 2455.58,-474.61"/>
<polygon fill="black" stroke="black" points="2454.51,-477.94 2465.11,-478.04 2456.88,-471.36 2454.51,-477.94"/>
</g>
<!-- 5266954168 -->
<g id="node33" class="node">
<title>5266954168</title>
<polygon fill="black" stroke="black" points="2798,-664 2744,-664 2744,-628 2798,-628 2798,-664"/>
</g>
<!-- 5266953888 -->
<g id="node66" class="node">
<title>5266953888</title>
<ellipse fill="none" stroke="black" cx="3007" cy="-587" rx="27" ry="27"/>
</g>
<!-- 5266954168&#45;&gt;5266953888 -->
<g id="edge78" class="edge">
<title>5266954168&#45;&gt;5266953888</title>
<path fill="none" stroke="black" d="M2798.08,-643.02C2832.17,-638.7 2893.47,-629.48 2944,-614 2953.75,-611.01 2964.02,-606.95 2973.33,-602.88"/>
<polygon fill="black" stroke="black" points="2974.96,-605.98 2982.63,-598.68 2972.08,-599.6 2974.96,-605.98"/>
</g>
<!-- 5266955512 -->
<g id="node34" class="node">
<title>5266955512</title>
<polygon fill="black" stroke="black" points="2916,-551 2862,-551 2862,-515 2916,-515 2916,-551"/>
</g>
<!-- 5266955512&#45;&gt;5266954448 -->
<g id="edge79" class="edge">
<title>5266955512&#45;&gt;5266954448</title>
<path fill="none" stroke="black" d="M2861.98,-531.81C2805.16,-529.87 2666.08,-528.6 2554,-556 2544.1,-558.42 2533.78,-562.31 2524.47,-566.38"/>
<polygon fill="black" stroke="black" points="2522.81,-563.29 2515.18,-570.65 2525.73,-569.65 2522.81,-563.29"/>
</g>
<!-- 5266955736 -->
<g id="node35" class="node">
<title>5266955736</title>
<polygon fill="black" stroke="black" points="2916,-605 2862,-605 2862,-569 2916,-569 2916,-605"/>
</g>
<!-- 5266955736&#45;&gt;5266953888 -->
<g id="edge80" class="edge">
<title>5266955736&#45;&gt;5266953888</title>
<path fill="none" stroke="black" d="M2916.03,-587C2931.74,-587 2952,-587 2969.32,-587"/>
<polygon fill="black" stroke="black" points="2969.65,-590.5 2979.65,-587 2969.65,-583.5 2969.65,-590.5"/>
</g>
<!-- 5262735792 -->
<g id="node36" class="node">
<title>5262735792</title>
<polygon fill="black" stroke="black" points="1036,-384 982,-384 982,-348 1036,-348 1036,-384"/>
</g>
<!-- 5262735792&#45;&gt;5262733496 -->
<g id="edge81" class="edge">
<title>5262735792&#45;&gt;5262733496</title>
<path fill="none" stroke="black" d="M981.6,-366.61C929.57,-367.27 810.35,-366.07 713,-345 703.52,-342.95 693.55,-339.75 684.44,-336.38"/>
<polygon fill="black" stroke="black" points="685.55,-333.06 674.96,-332.7 683.02,-339.58 685.55,-333.06"/>
</g>
<!-- 5262736184 -->
<g id="node37" class="node">
<title>5262736184</title>
<polygon fill="black" stroke="black" points="1036,-327 982,-327 982,-291 1036,-291 1036,-327"/>
</g>
<!-- 5262736184&#45;&gt;5262659032 -->
<g id="edge82" class="edge">
<title>5262736184&#45;&gt;5262659032</title>
<path fill="none" stroke="black" d="M1036.4,-300.9C1044.79,-298.33 1054.2,-295.44 1063.09,-292.71"/>
<polygon fill="black" stroke="black" points="1064.29,-296 1072.82,-289.72 1062.24,-289.31 1064.29,-296"/>
</g>
<!-- 5262733608 -->
<g id="node38" class="node">
<title>5262733608</title>
<polygon fill="black" stroke="black" points="1467,-327 1413,-327 1413,-291 1467,-291 1467,-327"/>
</g>
<!-- 5262733608&#45;&gt;5262736968 -->
<g id="edge83" class="edge">
<title>5262733608&#45;&gt;5262736968</title>
<path fill="none" stroke="black" d="M1467.4,-308.7C1475.39,-308.61 1484.31,-308.51 1492.82,-308.41"/>
<polygon fill="black" stroke="black" points="1492.96,-311.91 1502.92,-308.3 1492.88,-304.91 1492.96,-311.91"/>
</g>
<!-- 5262921968 -->
<g id="node39" class="node">
<title>5262921968</title>
<polygon fill="black" stroke="black" points="3304,-486 3250,-486 3250,-450 3304,-450 3304,-486"/>
</g>
<!-- 5262390048 -->
<g id="node74" class="node">
<title>5262390048</title>
<ellipse fill="orange" stroke="black" cx="3367" cy="-468" rx="27" ry="27"/>
</g>
<!-- 5262921968&#45;&gt;5262390048 -->
<g id="edge85" class="edge">
<title>5262921968&#45;&gt;5262390048</title>
<path fill="none" stroke="black" d="M3304.4,-468C3312.39,-468 3321.31,-468 3329.82,-468"/>
<polygon fill="black" stroke="black" points="3329.92,-471.5 3339.92,-468 3329.92,-464.5 3329.92,-471.5"/>
</g>
<!-- 5262925776 -->
<g id="node40" class="node">
<title>5262925776</title>
<polygon fill="black" stroke="black" points="3124,-559 3070,-559 3070,-523 3124,-523 3124,-559"/>
</g>
<!-- 5262925776&#45;&gt;5262924768 -->
<g id="edge86" class="edge">
<title>5262925776&#45;&gt;5262924768</title>
<path fill="none" stroke="black" d="M3124.4,-541C3132.39,-541 3141.31,-541 3149.82,-541"/>
<polygon fill="black" stroke="black" points="3149.92,-544.5 3159.92,-541 3149.92,-537.5 3149.92,-544.5"/>
</g>
<!-- 5262737304 -->
<g id="node41" class="node">
<title>5262737304</title>
<polygon fill="black" stroke="black" points="1647,-326 1593,-326 1593,-290 1647,-290 1647,-326"/>
</g>
<!-- 5262922248 -->
<g id="node54" class="node">
<title>5262922248</title>
<ellipse fill="none" stroke="black" cx="1710" cy="-305" rx="27" ry="27"/>
</g>
<!-- 5262737304&#45;&gt;5262922248 -->
<g id="edge87" class="edge">
<title>5262737304&#45;&gt;5262922248</title>
<path fill="none" stroke="black" d="M1647.4,-307.1C1655.39,-306.83 1664.31,-306.52 1672.82,-306.23"/>
<polygon fill="black" stroke="black" points="1673.04,-309.73 1682.92,-305.89 1672.81,-302.73 1673.04,-309.73"/>
</g>
<!-- 5262922696 -->
<g id="node58" class="node">
<title>5262922696</title>
<ellipse fill="none" stroke="black" cx="1710" cy="-415" rx="27" ry="27"/>
</g>
<!-- 5262737304&#45;&gt;5262922696 -->
<g id="edge88" class="edge">
<title>5262737304&#45;&gt;5262922696</title>
<path fill="none" stroke="black" d="M1635.93,-326.15C1649.57,-342.74 1669.97,-367.54 1685.75,-386.73"/>
<polygon fill="black" stroke="black" points="1683.14,-389.06 1692.19,-394.57 1688.54,-384.62 1683.14,-389.06"/>
</g>
<!-- 5262925664 -->
<g id="node42" class="node">
<title>5262925664</title>
<polygon fill="black" stroke="black" points="2112.5,-595 2058.5,-595 2058.5,-559 2112.5,-559 2112.5,-595"/>
</g>
<!-- 4441823832 -->
<g id="node61" class="node">
<title>4441823832</title>
<ellipse fill="none" stroke="black" cx="2237" cy="-541" rx="27" ry="27"/>
</g>
<!-- 5262925664&#45;&gt;4441823832 -->
<g id="edge89" class="edge">
<title>5262925664&#45;&gt;4441823832</title>
<path fill="none" stroke="black" d="M2112.54,-570.73C2136.87,-564.87 2173.4,-556.07 2200.41,-549.57"/>
<polygon fill="black" stroke="black" points="2201.35,-552.94 2210.26,-547.2 2199.72,-546.14 2201.35,-552.94"/>
</g>
<!-- 5266955960 -->
<g id="node65" class="node">
<title>5266955960</title>
<ellipse fill="none" stroke="black" cx="2237" cy="-613" rx="27" ry="27"/>
</g>
<!-- 5262925664&#45;&gt;5266955960 -->
<g id="edge90" class="edge">
<title>5262925664&#45;&gt;5266955960</title>
<path fill="none" stroke="black" d="M2112.54,-583.27C2136.87,-589.13 2173.4,-597.93 2200.41,-604.43"/>
<polygon fill="black" stroke="black" points="2199.72,-607.86 2210.26,-606.8 2201.35,-601.06 2199.72,-607.86"/>
</g>
<!-- 5262310592 -->
<g id="node43" class="node">
<title>5262310592</title>
<polygon fill="none" stroke="black" points="407,-281 307,-281 307,-245 407,-245 407,-281"/>
<text text-anchor="middle" x="357" y="-259.3" font-family="Times,serif" font-size="14.00">transfer market</text>
</g>
<!-- 5262310592&#45;&gt;5262658248 -->
<g id="edge4" class="edge">
<title>5262310592&#45;&gt;5262658248</title>
<path fill="none" stroke="black" d="M407.01,-274.92C416.01,-277.11 425.24,-279.36 433.74,-281.42"/>
<polygon fill="black" stroke="black" points="433.13,-284.88 443.68,-283.84 434.79,-278.08 433.13,-284.88"/>
</g>
<!-- 5262473760 -->
<g id="node44" class="node">
<title>5262473760</title>
<ellipse fill="green" stroke="black" cx="27" cy="-290" rx="27" ry="27"/>
<text text-anchor="middle" x="27" y="-286.3" font-family="Times,serif" font-size="14.00">1</text>
</g>
<!-- 5262473760&#45;&gt;5262657464 -->
<g id="edge84" class="edge">
<title>5262473760&#45;&gt;5262657464</title>
<path fill="none" stroke="black" d="M54.05,-290C61.84,-290 70.68,-290 79.59,-290"/>
<polygon fill="black" stroke="black" points="79.62,-293.5 89.62,-290 79.62,-286.5 79.62,-293.5"/>
</g>
<!-- 5262734056&#45;&gt;5262643272 -->
<g id="edge18" class="edge">
<title>5262734056&#45;&gt;5262643272</title>
<path fill="none" stroke="black" d="M1375.98,-274.34C1384.42,-271.75 1394,-268.81 1403.11,-266.01"/>
<polygon fill="black" stroke="black" points="1404.19,-269.34 1412.73,-263.06 1402.14,-262.65 1404.19,-269.34"/>
</g>
<!-- 5262734056&#45;&gt;5262733608 -->
<g id="edge19" class="edge">
<title>5262734056&#45;&gt;5262733608</title>
<path fill="none" stroke="black" d="M1375.98,-289.66C1384.42,-292.25 1394,-295.19 1403.11,-297.99"/>
<polygon fill="black" stroke="black" points="1402.14,-301.35 1412.73,-300.94 1404.19,-294.66 1402.14,-301.35"/>
</g>
<!-- 5262736968&#45;&gt;5262737304 -->
<g id="edge20" class="edge">
<title>5262736968&#45;&gt;5262737304</title>
<path fill="none" stroke="black" d="M1557.4,-308C1565.39,-308 1574.31,-308 1582.82,-308"/>
<polygon fill="black" stroke="black" points="1582.92,-311.5 1592.92,-308 1582.92,-304.5 1582.92,-311.5"/>
</g>
<!-- 5262645344&#45;&gt;5262646912 -->
<g id="edge21" class="edge">
<title>5262645344&#45;&gt;5262646912</title>
<path fill="none" stroke="black" d="M1557.4,-100C1565.39,-100 1574.31,-100 1582.82,-100"/>
<polygon fill="black" stroke="black" points="1582.92,-103.5 1592.92,-100 1582.92,-96.5 1582.92,-103.5"/>
</g>
<!-- 5262645624&#45;&gt;5262827416 -->
<g id="edge22" class="edge">
<title>5262645624&#45;&gt;5262827416</title>
<path fill="none" stroke="black" d="M1375.98,-124.34C1384.42,-121.75 1394,-118.81 1403.11,-116.01"/>
<polygon fill="black" stroke="black" points="1404.19,-119.34 1412.73,-113.06 1402.14,-112.65 1404.19,-119.34"/>
</g>
<!-- 5262645624&#45;&gt;5262924936 -->
<g id="edge23" class="edge">
<title>5262645624&#45;&gt;5262924936</title>
<path fill="none" stroke="black" d="M1371.85,-148.35C1382.59,-156.77 1395.9,-167.21 1407.83,-176.56"/>
<polygon fill="black" stroke="black" points="1405.79,-179.41 1415.82,-182.82 1410.11,-173.9 1405.79,-179.41"/>
</g>
<!-- 5262646688&#45;&gt;5262825960 -->
<g id="edge24" class="edge">
<title>5262646688&#45;&gt;5262825960</title>
<path fill="none" stroke="black" d="M1737.07,-100C1745.65,-100 1755.55,-100 1765.46,-100"/>
<polygon fill="black" stroke="black" points="1765.76,-103.5 1775.76,-100 1765.76,-96.5 1765.76,-103.5"/>
</g>
<!-- 5262646072&#45;&gt;5262823888 -->
<g id="edge25" class="edge">
<title>5262646072&#45;&gt;5262823888</title>
<path fill="none" stroke="black" d="M1958.89,-88.85C1970.3,-83.72 1984.23,-77.73 1997,-73 2013.63,-66.84 2032.38,-60.92 2048.25,-56.2"/>
<polygon fill="black" stroke="black" points="2049.6,-59.45 2058.21,-53.28 2047.63,-52.73 2049.6,-59.45"/>
</g>
<!-- 5262646072&#45;&gt;5262824280 -->
<g id="edge26" class="edge">
<title>5262646072&#45;&gt;5262824280</title>
<path fill="none" stroke="black" d="M1961.04,-100C1985.12,-100 2021.14,-100 2048.06,-100"/>
<polygon fill="black" stroke="black" points="2048.26,-103.5 2058.26,-100 2048.26,-96.5 2048.26,-103.5"/>
</g>
<!-- 5262645736&#45;&gt;5262824616 -->
<g id="edge27" class="edge">
<title>5262645736&#45;&gt;5262824616</title>
<path fill="none" stroke="black" d="M2795.75,-111.26C2808.6,-117.35 2824.93,-125.1 2840.28,-132.37"/>
<polygon fill="black" stroke="black" points="2839.13,-135.7 2849.66,-136.82 2842.13,-129.38 2839.13,-135.7"/>
</g>
<!-- 5262645736&#45;&gt;5262826912 -->
<g id="edge28" class="edge">
<title>5262645736&#45;&gt;5262826912</title>
<path fill="none" stroke="black" d="M2796.04,-89.64C2812.42,-82.58 2834.4,-73.1 2852.76,-65.19"/>
<polygon fill="black" stroke="black" points="2854.18,-68.39 2861.98,-61.22 2851.41,-61.96 2854.18,-68.39"/>
</g>
<!-- 5262824784&#45;&gt;5262825848 -->
<g id="edge29" class="edge">
<title>5262824784&#45;&gt;5262825848</title>
<path fill="none" stroke="black" d="M2264.2,-100C2271.8,-100 2280.49,-100 2289.49,-100"/>
<polygon fill="black" stroke="black" points="2289.75,-103.5 2299.75,-100 2289.75,-96.5 2289.75,-103.5"/>
</g>
<!-- 5262825512&#45;&gt;5262826240 -->
<g id="edge30" class="edge">
<title>5262825512&#45;&gt;5262826240</title>
<path fill="none" stroke="black" d="M2515.98,-89.09C2527.42,-84.01 2541.33,-78 2554,-73 2566.95,-67.89 2581.3,-62.67 2594.02,-58.21"/>
<polygon fill="black" stroke="black" points="2595.51,-61.4 2603.8,-54.8 2593.21,-54.78 2595.51,-61.4"/>
</g>
<!-- 5262825512&#45;&gt;5262826520 -->
<g id="edge31" class="edge">
<title>5262825512&#45;&gt;5262826520</title>
<path fill="none" stroke="black" d="M2518.28,-100C2539.67,-100 2570.09,-100 2593.79,-100"/>
<polygon fill="black" stroke="black" points="2593.82,-103.5 2603.82,-100 2593.82,-96.5 2593.82,-103.5"/>
</g>
<!-- 5262922248&#45;&gt;5262923144 -->
<g id="edge32" class="edge">
<title>5262922248&#45;&gt;5262923144</title>
<path fill="none" stroke="black" d="M1734.6,-293.42C1749.37,-286.16 1768.7,-276.68 1785.32,-268.51"/>
<polygon fill="black" stroke="black" points="1787.31,-271.44 1794.74,-263.89 1784.22,-265.15 1787.31,-271.44"/>
</g>
<!-- 5262922248&#45;&gt;5262922808 -->
<g id="edge33" class="edge">
<title>5262922248&#45;&gt;5262922808</title>
<path fill="none" stroke="black" d="M1737.34,-305C1776.89,-305 1851.76,-305 1896.54,-305"/>
<polygon fill="black" stroke="black" points="1896.7,-308.5 1906.7,-305 1896.7,-301.5 1896.7,-308.5"/>
</g>
<!-- 5262922528&#45;&gt;5262921968 -->
<g id="edge34" class="edge">
<title>5262922528&#45;&gt;5262921968</title>
<path fill="none" stroke="black" d="M2511.61,-321.63C2554.88,-358.63 2663.19,-441 2770,-441 2770,-441 2770,-441 3098,-441 3147.64,-441 3204.2,-451.39 3239.99,-459.28"/>
<polygon fill="black" stroke="black" points="3239.42,-462.74 3249.95,-461.53 3240.97,-455.92 3239.42,-462.74"/>
</g>
<!-- 5262923032&#45;&gt;5262923760 -->
<g id="edge35" class="edge">
<title>5262923032&#45;&gt;5262923760</title>
<path fill="none" stroke="black" d="M1961.04,-242.7C1968.6,-242.9 1977.33,-243.13 1986.59,-243.38"/>
<polygon fill="black" stroke="black" points="1986.72,-246.89 1996.81,-243.65 1986.91,-239.89 1986.72,-246.89"/>
</g>
<!-- 5262923592&#45;&gt;5262924096 -->
<g id="edge36" class="edge">
<title>5262923592&#45;&gt;5262924096</title>
<path fill="none" stroke="black" d="M2262.7,-239.91C2281.12,-233.13 2306.57,-223.77 2327.22,-216.17"/>
<polygon fill="black" stroke="black" points="2328.45,-219.44 2336.63,-212.7 2326.04,-212.87 2328.45,-219.44"/>
</g>
<!-- 5262923592&#45;&gt;5262924376 -->
<g id="edge37" class="edge">
<title>5262923592&#45;&gt;5262924376</title>
<path fill="none" stroke="black" d="M2264.2,-250.89C2282.37,-252.19 2306.8,-253.95 2326.82,-255.4"/>
<polygon fill="black" stroke="black" points="2326.6,-258.89 2336.83,-256.12 2327.11,-251.91 2326.6,-258.89"/>
</g>
<!-- 5262922696&#45;&gt;5262925272 -->
<g id="edge38" class="edge">
<title>5262922696&#45;&gt;5262925272</title>
<path fill="none" stroke="black" d="M1732.73,-430.02C1748.01,-440.57 1768.78,-454.92 1786.34,-467.05"/>
<polygon fill="black" stroke="black" points="1784.44,-469.99 1794.66,-472.8 1788.42,-464.24 1784.44,-469.99"/>
</g>
<!-- 5262924768&#45;&gt;5262921968 -->
<g id="edge39" class="edge">
<title>5262924768&#45;&gt;5262921968</title>
<path fill="none" stroke="black" d="M3208.41,-524.07C3219.66,-514.74 3233.82,-502.99 3246.27,-492.66"/>
<polygon fill="black" stroke="black" points="3248.7,-495.19 3254.16,-486.12 3244.23,-489.81 3248.7,-495.19"/>
</g>
<!-- 5262925104&#45;&gt;5262925496 -->
<g id="edge40" class="edge">
<title>5262925104&#45;&gt;5262925496</title>
<path fill="none" stroke="black" d="M1956.93,-591.8C2005.15,-622.86 2124.96,-692 2236,-692 2236,-692 2236,-692 2772,-692 2842.19,-692 2923.76,-682.51 2969.69,-676.29"/>
<polygon fill="black" stroke="black" points="2970.32,-679.73 2979.75,-674.9 2969.36,-672.8 2970.32,-679.73"/>
</g>
<!-- 5262925104&#45;&gt;5262925664 -->
<g id="edge41" class="edge">
<title>5262925104&#45;&gt;5262925664</title>
<path fill="none" stroke="black" d="M1961.04,-577C1985.12,-577 2021.14,-577 2048.06,-577"/>
<polygon fill="black" stroke="black" points="2048.26,-580.5 2058.26,-577 2048.26,-573.5 2048.26,-580.5"/>
</g>
<!-- 4441823832&#45;&gt;5266952544 -->
<g id="edge42" class="edge">
<title>4441823832&#45;&gt;5266952544</title>
<path fill="none" stroke="black" d="M2262.7,-532.11C2281.04,-525.51 2306.34,-516.4 2326.94,-508.98"/>
<polygon fill="black" stroke="black" points="2328.41,-512.17 2336.63,-505.49 2326.03,-505.59 2328.41,-512.17"/>
</g>
<!-- 4441823832&#45;&gt;5266952264 -->
<g id="edge43" class="edge">
<title>4441823832&#45;&gt;5266952264</title>
<path fill="none" stroke="black" d="M2264.2,-542.89C2282.37,-544.19 2306.8,-545.95 2326.82,-547.4"/>
<polygon fill="black" stroke="black" points="2326.6,-550.89 2336.83,-548.12 2327.11,-543.91 2326.6,-550.89"/>
</g>
<!-- 5266954616&#45;&gt;5262925776 -->
<g id="edge44" class="edge">
<title>5266954616&#45;&gt;5262925776</title>
<path fill="none" stroke="black" d="M2518.06,-487C2567.29,-487 2677.33,-487 2770,-487 2770,-487 2770,-487 2890,-487 2951.48,-487 3020.01,-509.78 3060.49,-525.75"/>
<polygon fill="black" stroke="black" points="3059.33,-529.06 3069.91,-529.55 3061.94,-522.57 3059.33,-529.06"/>
</g>
<!-- 5266952432&#45;&gt;5266953048 -->
<g id="edge45" class="edge">
<title>5266952432&#45;&gt;5266953048</title>
<path fill="none" stroke="black" d="M2466.91,-375.24C2455.55,-369.68 2441.45,-363.8 2428,-361 2339.84,-342.64 2236.17,-350.62 2166.37,-360.16"/>
<polygon fill="black" stroke="black" points="2165.74,-356.72 2156.33,-361.58 2166.72,-363.65 2165.74,-356.72"/>
</g>
<!-- 5266952880&#45;&gt;5266953328 -->
<g id="edge46" class="edge">
<title>5266952880&#45;&gt;5266953328</title>
<path fill="none" stroke="black" d="M2264.2,-395.11C2282.37,-393.81 2306.8,-392.05 2326.82,-390.6"/>
<polygon fill="black" stroke="black" points="2327.11,-394.09 2336.83,-389.88 2326.6,-387.11 2327.11,-394.09"/>
</g>
<!-- 5266952880&#45;&gt;5266953552 -->
<g id="edge47" class="edge">
<title>5266952880&#45;&gt;5266953552</title>
<path fill="none" stroke="black" d="M2262.7,-405.89C2281.04,-412.49 2306.34,-421.6 2326.94,-429.02"/>
<polygon fill="black" stroke="black" points="2326.03,-432.41 2336.63,-432.51 2328.41,-425.83 2326.03,-432.41"/>
</g>
<!-- 5266955960&#45;&gt;5266954728 -->
<g id="edge48" class="edge">
<title>5266955960&#45;&gt;5266954728</title>
<path fill="none" stroke="black" d="M2264.2,-611.11C2282.37,-609.81 2306.8,-608.05 2326.82,-606.6"/>
<polygon fill="black" stroke="black" points="2327.11,-610.09 2336.83,-605.88 2326.6,-603.11 2327.11,-610.09"/>
</g>
<!-- 5266955960&#45;&gt;5266954168 -->
<g id="edge49" class="edge">
<title>5266955960&#45;&gt;5266954168</title>
<path fill="none" stroke="black" d="M2262.71,-621.72C2273.94,-625.28 2287.49,-629.02 2300,-631 2459.79,-656.33 2653.85,-651.43 2733.36,-647.93"/>
<polygon fill="black" stroke="black" points="2733.97,-651.4 2743.8,-647.44 2733.65,-644.41 2733.97,-651.4"/>
</g>
<!-- 5266953888&#45;&gt;5262925776 -->
<g id="edge50" class="edge">
<title>5266953888&#45;&gt;5262925776</title>
<path fill="none" stroke="black" d="M3031.58,-574.67C3040.53,-569.99 3050.93,-564.56 3060.73,-559.44"/>
<polygon fill="black" stroke="black" points="3062.63,-562.39 3069.87,-554.66 3059.39,-556.19 3062.63,-562.39"/>
</g>
<!-- 5266954448&#45;&gt;5266955232 -->
<g id="edge51" class="edge">
<title>5266954448&#45;&gt;5266955232</title>
<path fill="none" stroke="black" d="M2518.28,-583C2525.86,-583 2534.58,-583 2543.72,-583"/>
<polygon fill="black" stroke="black" points="2543.79,-586.5 2553.79,-583 2543.79,-579.5 2543.79,-586.5"/>
</g>
<!-- 5266955064&#45;&gt;5266955512 -->
<g id="edge52" class="edge">
<title>5266955064&#45;&gt;5266955512</title>
<path fill="none" stroke="black" d="M2796.04,-572.64C2812.42,-565.58 2834.4,-556.1 2852.76,-548.19"/>
<polygon fill="black" stroke="black" points="2854.18,-551.39 2861.98,-544.22 2851.41,-544.96 2854.18,-551.39"/>
</g>
<!-- 5266955064&#45;&gt;5266955736 -->
<g id="edge53" class="edge">
<title>5266955064&#45;&gt;5266955736</title>
<path fill="none" stroke="black" d="M2798.03,-583.9C2813.74,-584.44 2834,-585.14 2851.32,-585.74"/>
<polygon fill="black" stroke="black" points="2851.54,-589.24 2861.65,-586.09 2851.78,-582.25 2851.54,-589.24"/>
</g>
<!-- 5262656904&#45;&gt;5262561008 -->
<g id="edge55" class="edge">
<title>5262656904&#45;&gt;5262561008</title>
<path fill="none" stroke="black" d="M270.47,-296.19C285.06,-299.74 303.62,-304.26 319.72,-308.18"/>
<polygon fill="black" stroke="black" points="319.34,-311.68 329.88,-310.65 320.99,-304.88 319.34,-311.68"/>
</g>
<!-- 5262656904&#45;&gt;5262310592 -->
<g id="edge54" class="edge">
<title>5262656904&#45;&gt;5262310592</title>
<path fill="none" stroke="black" d="M270.47,-283.81C278.36,-281.88 287.42,-279.68 296.62,-277.44"/>
<polygon fill="black" stroke="black" points="297.72,-280.78 306.61,-275.01 296.07,-273.98 297.72,-280.78"/>
</g>
<!-- 5262658248&#45;&gt;5262733776 -->
<g id="edge56" class="edge">
<title>5262658248&#45;&gt;5262733776</title>
<path fill="none" stroke="black" d="M495.98,-297.66C504.42,-300.25 514,-303.19 523.11,-305.99"/>
<polygon fill="black" stroke="black" points="522.14,-309.35 532.73,-308.94 524.19,-302.66 522.14,-309.35"/>
</g>
<!-- 5262658248&#45;&gt;5262737024 -->
<g id="edge57" class="edge">
<title>5262658248&#45;&gt;5262737024</title>
<path fill="none" stroke="black" d="M496.88,-285.49C527.38,-280.18 578.25,-271.32 612.68,-265.33"/>
<polygon fill="black" stroke="black" points="613.54,-268.73 622.8,-263.56 612.34,-261.83 613.54,-268.73"/>
</g>
<!-- 5262659032&#45;&gt;5262736800 -->
<g id="edge58" class="edge">
<title>5262659032&#45;&gt;5262736800</title>
<path fill="none" stroke="black" d="M1126.19,-282C1133.8,-282 1142.51,-282 1151.52,-282"/>
<polygon fill="black" stroke="black" points="1151.77,-285.5 1161.77,-282 1151.77,-278.5 1151.77,-285.5"/>
</g>
<!-- 5262733496&#45;&gt;5262735400 -->
<g id="edge59" class="edge">
<title>5262733496&#45;&gt;5262735400</title>
<path fill="none" stroke="black" d="M677.18,-321.21C684.82,-320.98 693.6,-320.71 702.78,-320.44"/>
<polygon fill="black" stroke="black" points="702.96,-323.93 712.85,-320.13 702.75,-316.94 702.96,-323.93"/>
</g>
<!-- 5262734672&#45;&gt;5262735792 -->
<g id="edge60" class="edge">
<title>5262734672&#45;&gt;5262735792</title>
<path fill="none" stroke="black" d="M942.66,-327.39C951.96,-332.88 962.93,-339.37 973.2,-345.44"/>
<polygon fill="black" stroke="black" points="971.6,-348.56 981.99,-350.63 975.16,-342.53 971.6,-348.56"/>
</g>
<!-- 5262734672&#45;&gt;5262736184 -->
<g id="edge61" class="edge">
<title>5262734672&#45;&gt;5262736184</title>
<path fill="none" stroke="black" d="M946.4,-312.5C954.39,-312.05 963.31,-311.54 971.82,-311.06"/>
<polygon fill="black" stroke="black" points="972.13,-314.54 981.92,-310.48 971.74,-307.55 972.13,-314.54"/>
</g>
</g>
</svg>
